<svg id="Layer_1" data-name="Layer 1" xmlns="http://www.w3.org/2000/svg" viewBox="0 0 64 64"><title>hourglass</title><path d="M25.9,35.34c-5.26,2.43-8.57,7.83-9.46,12.95a6.49,6.49,0,0,1-2.64,4.37A4,4,0,0,0,12,56.31,4.12,4.12,0,0,0,16.18,60H47.82A4.12,4.12,0,0,0,52,56.31a4,4,0,0,0-1.78-3.65,6.63,6.63,0,0,1-2.66-4.46c-.9-5-4.15-10.32-9.28-12.78a3.85,3.85,0,0,1-1.82-1.62,3.73,3.73,0,0,1,1.65-5.15c5.26-2.43,8.57-7.83,9.46-12.95a6.49,6.49,0,0,1,2.64-4.37A4,4,0,0,0,52,7.69,4.12,4.12,0,0,0,47.82,4H16.18A4.12,4.12,0,0,0,12,7.69a4,4,0,0,0,1.78,3.65,6.63,6.63,0,0,1,2.66,4.46c.9,5,4.15,10.32,9.28,12.78a3.85,3.85,0,0,1,1.82,1.62A3.73,3.73,0,0,1,25.9,35.34ZM25.64,18a3.16,3.16,0,0,1-3.06-2.28c-.1-.35-.17-.69-.23-1a13.88,13.88,0,0,0-.89-3A1.18,1.18,0,0,1,22.56,10H41.44a1.18,1.18,0,0,1,1.1,1.64,13.89,13.89,0,0,0-.89,3c-.06.34-.14.68-.23,1A3.16,3.16,0,0,1,38.36,18Zm2.78,22.79A9.55,9.55,0,0,0,31.93,38h.14a9.55,9.55,0,0,0,3.51,2.79,10.87,10.87,0,0,1,5,5.32A1.31,1.31,0,0,1,39.43,48H24.57a1.31,1.31,0,0,1-1.18-1.89A10.87,10.87,0,0,1,28.42,40.79Z"/></svg>